<?xml version="1.0" encoding="UTF-8"?>
<!-- Generator: Blender, SVG Export for Grease Pencil - v1.0 -->
<!DOCTYPE svg PUBLIC "-//W3C//DTD SVG 1.1//EN" "http://www.w3.org/Graphics/SVG/1.1/DTD/svg11.dtd">
<svg version="1.0" x="0px" y="0px" xmlns="http://www.w3.org/2000/svg" width="96px" height="96px" viewBox="-100 0 700 700">
	<g id="blender_frame_1">
		<g id="blender_object_fiverr.svg">
			<!--Layer: Layer_001-->
			<g id="Layer_001">
				<polygon fill="#fff" stroke="none" fill-opacity="1" points="85.670624,599.785400 100.260712,599.785400 114.850739,599.785400 129.440826,599.785339 144.030853,599.785461 158.620941,599.785400 173.211029,599.785400 187.801117,599.785400 202.391205,599.785400 216.981232,599.785400 216.981232,566.648682 216.981232,533.511902 216.981232,500.375000 216.981232,467.238281 216.981232,434.101501 216.981232,400.964722 216.981232,367.827881 216.981232,334.691132 216.981232,301.554321 231.076813,301.554321 245.172272,301.554321 259.267731,301.554321 273.363312,301.554321 287.458832,301.554321 301.554352,301.554321 315.649811,301.554321 329.745270,301.554321 343.840790,301.554321 343.840790,334.691132 343.840790,367.827942 343.840790,400.964661 343.840790,434.101501 343.840790,467.238281 343.840790,500.375061 343.840790,533.511841 343.840790,566.648682 343.840790,599.785400 358.430878,599.785400 373.020905,599.785400 387.610931,599.785339 402.201080,599.785461 416.791168,599.785400 431.381256,599.785400 445.971283,599.785400 460.561371,599.785400 475.151520,599.785400 475.151520,554.284180 475.151520,508.782898 475.151520,463.281616 475.151520,417.780396 475.151520,372.279053 475.151520,326.777863 475.151520,281.276550 475.151520,235.775330 475.151520,190.274048 446.465851,190.274048 417.780365,190.274048 389.094757,190.274048 360.409210,190.274048 331.723602,190.274048 303.037994,190.274048 274.352386,190.274048 245.666840,190.274048 216.981232,190.274048 216.981232,179.393311 216.981232,168.512573 217.707916,157.231934 223.245941,142.382324 233.619904,131.049744 248.096954,123.820374 256.645233,121.927551 265.944550,121.280334 274.599701,121.280334 283.254852,121.280334 291.909943,121.280334 300.565155,121.280334 309.220245,121.280334 317.875397,121.280334 326.530487,121.280334 335.185638,121.280334 343.840790,121.280334 343.840790,108.915833 343.840790,96.551331 343.840790,84.186890 343.840790,71.822449 343.840790,59.457947 343.840790,47.093445 343.840790,34.729004 343.840790,22.364502 343.840790,10.000000 332.960052,10.000000 322.079254,10.000000 311.198517,10.000000 300.317841,10.000000 289.437164,10.000000 278.556305,10.000000 267.675629,10.000000 256.794830,10.000000 245.914154,10.000000 215.213654,12.179810 187.095856,18.536072 161.835663,28.794006 139.707916,42.678833 120.987152,59.915894 105.948334,80.230225 94.866058,103.347290 88.015289,128.992065 85.670563,156.889954 85.670563,168.018005 85.670563,179.146057 85.670563,190.274048 68.854889,190.274048 52.039215,190.274048 35.223541,190.274048 10.305969,190.274048 10.000000,202.638550 10.000000,215.003052 10.000000,227.367462 10.000000,239.731964 10.000000,252.096436 10.000000,264.460907 10.000000,276.825348 10.000000,289.189819 10.000000,301.554321 26.815674,301.554321 43.631317,301.554321 60.446991,301.554321 85.914276,301.554321 85.670563,334.691132 85.670563,367.827942 85.670563,400.964661 85.670624,434.101501 85.670563,467.238281 85.670624,500.375061 85.670624,533.511841 85.670624,566.648682 85.670624,599.785400" />
			</g>
		</g>
	</g>
</svg>
